<?xml version="1.0" encoding="UTF-8"?><svg id="Layer_1" xmlns="http://www.w3.org/2000/svg" viewBox="0 0 24 24"><defs><style>.cls-1{fill:#fffff5;stroke-width:0px;}</style></defs><path class="cls-1" d="m12.59,9.64c-1.63,0-2.95,1.32-2.95,2.95s1.32,2.95,2.95,2.95,2.95-1.32,2.95-2.95-1.32-2.95-2.95-2.95Zm0,4.72c-.98,0-1.77-.79-1.77-1.77s.79-1.77,1.77-1.77,1.77.79,1.77,1.77-.79,1.77-1.77,1.77Z"/><path class="cls-1" d="m7.28,9.64c-.33,0-.59.26-.59.59s.26.59.59.59.59-.26.59-.59-.26-.59-.59-.59Z"/><path class="cls-1" d="m19,0H5C2.2,0,0,2.2,0,5v14C0,21.8,2.2,24,5,24h14c2.8,0,5-2.2,5-5V5C24,2.2,21.8,0,19,0ZM6.09,6.69h1.77v.59h-1.77v-.59Zm12.99,11.22H4.91V7.87h3.5c.4,0,.76-.2.98-.53l.83-1.25h4.72l.83,1.25c.22.33.59.53.98.53h2.32v10.04Z"/></svg>