<?xml version="1.0" encoding="utf-8"?>
<!-- Generator: Adobe Illustrator 27.3.1, SVG Export Plug-In . SVG Version: 6.00 Build 0)  -->
<svg version="1.1" id="Layer_1" xmlns="http://www.w3.org/2000/svg" xmlns:xlink="http://www.w3.org/1999/xlink" x="0px" y="0px"
	 viewBox="0 0 24 24" style="enable-background:new 0 0 24 24;" xml:space="preserve">
<style type="text/css">
	.st0{fill-rule:evenodd;clip-rule:evenodd;fill:#FFFFF5;}
</style>
<path class="st0" d="M19,24H5c-2.8,0-5-2.2-5-5V5c0-2.8,2.2-5,5-5h14c2.8,0,5,2.2,5,5v14C24,21.8,21.8,24,19,24z M18.9,17.7
	c0.6,0,1.1-0.5,1.1-1.1V7.5c0-0.6-0.5-1.1-1.1-1.1H5.1C4.5,6.3,4,6.8,4,7.5v9.1c0,0.6,0.5,1.1,1.1,1.1H18.9z M12,13.6L5.8,9.3V17
	h12.5V9.3C18.2,9.3,12,13.6,12,13.6z M17.9,7c-1.7,1.2-5.9,4.2-5.9,4.2L6.1,7H17.9z"/>
</svg>
